<svg width="48" height="48" viewBox="0 0 48 48" fill="none" xmlns="http://www.w3.org/2000/svg">
<path opacity="0.4" d="M34.1099 47.3333H13.8877C5.97941 47.3333 0.666656 41.7867 0.666656 33.53V14.4724C0.666656 6.2156 5.97941 0.666672 13.8877 0.666672H34.1122C42.0206 0.666672 47.3333 6.2156 47.3333 14.4724V33.53C47.3333 41.7867 42.0206 47.3333 34.1099 47.3333Z" fill="#5570F1"/>
<path fill-rule="evenodd" clip-rule="evenodd" d="M22.2383 16.2417C22.2383 19.4383 19.6367 22.04 16.44 22.04C13.241 22.04 10.6417 19.4383 10.6417 16.2417C10.6417 13.045 13.241 10.441 16.44 10.441C19.6367 10.441 22.2383 13.045 22.2383 16.2417ZM41.2676 28.8711C41.8113 29.3984 42.2009 30.0004 42.4576 30.6421C43.2346 32.5834 42.8309 34.9167 42.0003 36.8394C41.0156 39.1284 39.1303 40.8574 36.7549 41.6134C35.7003 41.9517 34.5943 42.0964 33.4906 42.0964H13.9349C11.9889 42.0964 10.2669 41.6437 8.85526 40.7944C7.97092 40.2624 7.81459 39.0374 8.47026 38.2394C9.56692 36.9094 10.6496 35.5747 11.7416 34.2284C13.8229 31.6524 15.2253 30.9057 16.7839 31.5614C17.4163 31.8321 18.0509 32.2404 18.7043 32.6697C20.4449 33.8224 22.8646 35.4044 26.0519 33.6871C28.2306 32.4958 29.4953 30.4572 30.5961 28.6828L30.6183 28.6471C30.6923 28.5283 30.7658 28.4096 30.839 28.2913C31.2133 27.6865 31.582 27.0908 31.9996 26.5424C32.5176 25.8634 34.4403 23.7401 36.9253 25.2521C38.5096 26.2041 39.8419 27.4921 41.2676 28.8711Z" fill="#5570F1"/>
</svg>
