<svg width="56" height="56" viewBox="0 0 56 56" fill="none" xmlns="http://www.w3.org/2000/svg">
<path fill-rule="evenodd" clip-rule="evenodd" d="M32.5136 37.5H24.1658C21.0994 37.5 18.747 36.3925 19.4152 31.9348L20.1933 25.8936C20.6052 23.6693 22.0239 22.8181 23.2688 22.8181H33.4473C34.7104 22.8181 36.0468 23.7334 36.5228 25.8936L37.3008 31.9348C37.8683 35.889 35.58 37.5 32.5136 37.5Z" stroke="#53545C" stroke-width="1.5" stroke-linecap="round" stroke-linejoin="round"/>
<path d="M32.651 22.5984C32.651 20.2123 30.7167 18.278 28.3306 18.278V18.278C27.1816 18.2732 26.078 18.7262 25.2638 19.537C24.4496 20.3477 23.9919 21.4494 23.9919 22.5984V22.5984" stroke="#53545C" stroke-width="1.5" stroke-linecap="round" stroke-linejoin="round"/>
<path d="M31.2962 27.1018H31.2505" stroke="#53545C" stroke-width="1.5" stroke-linecap="round" stroke-linejoin="round"/>
<path d="M25.4657 27.1018H25.4199" stroke="#53545C" stroke-width="1.5" stroke-linecap="round" stroke-linejoin="round"/>
<rect x="32" y="1" width="24" height="24" rx="12" fill="#FFCC91"/>
<path d="M44.032 17.1193C43.4695 17.1193 42.968 17.0227 42.5277 16.8295C42.0902 16.6364 41.7422 16.3679 41.4837 16.0241C41.228 15.6776 41.0888 15.2756 41.0661 14.8182H42.1399C42.1626 15.0994 42.2592 15.3423 42.4297 15.5469C42.6001 15.7486 42.8232 15.9048 43.0987 16.0156C43.3743 16.1264 43.6797 16.1818 44.0149 16.1818C44.3899 16.1818 44.7223 16.1165 45.0121 15.9858C45.3018 15.8551 45.5291 15.6733 45.6939 15.4403C45.8587 15.2074 45.9411 14.9375 45.9411 14.6307C45.9411 14.3097 45.8615 14.027 45.7024 13.7827C45.5433 13.5355 45.3104 13.3423 45.0036 13.2031C44.6967 13.0639 44.3217 12.9943 43.8786 12.9943H43.1797V12.0568H43.8786C44.2251 12.0568 44.5291 11.9943 44.7905 11.8693C45.0547 11.7443 45.2607 11.5682 45.4084 11.3409C45.5589 11.1136 45.6342 10.8466 45.6342 10.5398C45.6342 10.2443 45.5689 9.98722 45.4382 9.76847C45.3075 9.54972 45.1229 9.37926 44.8842 9.2571C44.6484 9.13494 44.37 9.07386 44.049 9.07386C43.7479 9.07386 43.4638 9.12926 43.1967 9.24006C42.9325 9.34801 42.7166 9.50568 42.549 9.71307C42.3814 9.91761 42.2905 10.1648 42.2763 10.4545H41.2536C41.2706 9.99716 41.4084 9.59659 41.6669 9.25284C41.9254 8.90625 42.2635 8.63636 42.6811 8.44318C43.1016 8.25 43.5632 8.15341 44.0661 8.15341C44.6058 8.15341 45.0689 8.26278 45.4553 8.48153C45.8416 8.69744 46.1385 8.98295 46.3459 9.33807C46.5533 9.69318 46.657 10.0767 46.657 10.4886C46.657 10.9801 46.5277 11.3991 46.2692 11.7457C46.0135 12.0923 45.6655 12.3324 45.2251 12.4659V12.5341C45.7763 12.625 46.2067 12.8594 46.5163 13.2372C46.826 13.6122 46.9808 14.0767 46.9808 14.6307C46.9808 15.1051 46.8516 15.5312 46.593 15.9091C46.3374 16.2841 45.9879 16.5795 45.5447 16.7955C45.1016 17.0114 44.5973 17.1193 44.032 17.1193Z" fill="#1C1D22"/>
</svg>
