<svg width="56" height="56" viewBox="0 0 56 56" fill="none" xmlns="http://www.w3.org/2000/svg">
<rect x="32" y="1" width="24" height="24" rx="12" fill="#FFCC91"/>
<path d="M41.4384 8.27273V17H40.3816V9.38068H40.3304L38.1998 10.7955V9.72159L40.3816 8.27273H41.4384ZM46.8461 17.1193C46.4881 17.1136 46.1301 17.0455 45.7722 16.9148C45.4142 16.7841 45.0875 16.5639 44.7921 16.2543C44.4966 15.9418 44.2594 15.5199 44.0804 14.9886C43.9015 14.4545 43.812 13.7841 43.812 12.9773C43.812 12.2045 43.8844 11.5199 44.0293 10.9233C44.1742 10.3239 44.3844 9.8196 44.66 9.41051C44.9355 8.99858 45.2679 8.68608 45.6571 8.47301C46.0492 8.25994 46.4909 8.15341 46.9824 8.15341C47.4711 8.15341 47.9057 8.25142 48.2864 8.44744C48.6699 8.64062 48.9824 8.91051 49.2239 9.2571C49.4654 9.60369 49.6216 10.0028 49.6926 10.4545H48.6529C48.5563 10.0625 48.3688 9.73722 48.0904 9.47869C47.812 9.22017 47.4426 9.09091 46.9824 9.09091C46.3063 9.09091 45.7736 9.38494 45.3844 9.97301C44.998 10.5611 44.8034 11.3864 44.8006 12.4489H44.8688C45.0279 12.2074 45.2168 12.0014 45.4355 11.831C45.6571 11.6577 45.9015 11.5241 46.1685 11.4304C46.4355 11.3366 46.7182 11.2898 47.0165 11.2898C47.5165 11.2898 47.9739 11.4148 48.3887 11.6648C48.8034 11.9119 49.1358 12.2543 49.3858 12.6918C49.6358 13.1264 49.7608 13.625 49.7608 14.1875C49.7608 14.7273 49.6401 15.2216 49.3986 15.6705C49.1571 16.1165 48.8176 16.4716 48.3801 16.7358C47.9455 16.9972 47.4341 17.125 46.8461 17.1193ZM46.8461 16.1818C47.204 16.1818 47.525 16.0923 47.8091 15.9134C48.0961 15.7344 48.3219 15.4943 48.4867 15.1932C48.6543 14.892 48.7381 14.5568 48.7381 14.1875C48.7381 13.8267 48.6571 13.4986 48.4952 13.2031C48.3361 12.9048 48.1159 12.6676 47.8347 12.4915C47.5563 12.3153 47.2381 12.2273 46.8801 12.2273C46.6103 12.2273 46.3588 12.2812 46.1259 12.3892C45.8929 12.4943 45.6884 12.6392 45.5123 12.8239C45.339 13.0085 45.2026 13.2202 45.1032 13.4588C45.0037 13.6946 44.954 13.9432 44.954 14.2045C44.954 14.5511 45.035 14.875 45.1969 15.1761C45.3617 15.4773 45.5861 15.7202 45.8702 15.9048C46.1571 16.0895 46.4824 16.1818 46.8461 16.1818Z" fill="#1C1D22"/>
<path fill-rule="evenodd" clip-rule="evenodd" d="M35.0714 35.0699C32.0152 38.1263 27.4898 38.7867 23.7864 37.074C23.2397 36.8539 22.7915 36.676 22.3654 36.676C21.1785 36.683 19.7012 37.8339 18.9334 37.067C18.1656 36.2991 19.3173 34.8206 19.3173 33.6266C19.3173 33.2004 19.1464 32.7602 18.9263 32.2124C17.2128 28.5096 17.8741 23.9827 20.9303 20.9272C24.8316 17.0244 31.17 17.0244 35.0714 20.9262C38.9797 24.835 38.9727 31.1681 35.0714 35.0699Z" stroke="#53545C" stroke-width="1.5" stroke-linecap="round" stroke-linejoin="round"/>
<path d="M31.9393 28.413H31.9483" stroke="#53545C" stroke-width="2" stroke-linecap="round" stroke-linejoin="round"/>
<path d="M27.9303 28.413H27.9393" stroke="#53545C" stroke-width="2" stroke-linecap="round" stroke-linejoin="round"/>
<path d="M23.9213 28.413H23.9303" stroke="#53545C" stroke-width="2" stroke-linecap="round" stroke-linejoin="round"/>
</svg>
