<svg width="36" height="36" viewBox="0 0 36 36" fill="none" xmlns="http://www.w3.org/2000/svg">
<rect width="36" height="36" rx="8" fill="#5570F1" fill-opacity="0.08"/>
<g clip-path="url(#clip0_3631_211)">
<path d="M25.6749 21.2417C25.1448 22.4954 24.3156 23.6002 23.2598 24.4594C22.2041 25.3187 20.9539 25.9062 19.6186 26.1707C18.2833 26.4351 16.9036 26.3685 15.6001 25.9765C14.2965 25.5845 13.1088 24.8792 12.1408 23.9222C11.1728 22.9652 10.4539 21.7856 10.0471 20.4866C9.64031 19.1876 9.5579 17.8087 9.80709 16.4705C10.0563 15.1323 10.6295 13.8755 11.4766 12.81C12.3238 11.7445 13.419 10.9028 14.6666 10.3583" stroke="#5570F1" stroke-width="2" stroke-linecap="round" stroke-linejoin="round"/>
<path d="M26.3333 18C26.3333 16.9056 26.1178 15.822 25.699 14.811C25.2802 13.7999 24.6664 12.8813 23.8926 12.1074C23.1187 11.3336 22.2001 10.7198 21.189 10.301C20.178 9.8822 19.0943 9.66666 18 9.66666V18H26.3333Z" stroke="#5570F1" stroke-width="2" stroke-linecap="round" stroke-linejoin="round"/>
</g>
<defs>
<clipPath id="clip0_3631_211">
<rect width="20" height="20" fill="white" transform="translate(8 8)"/>
</clipPath>
</defs>
</svg>
